<svg xmlns="http://www.w3.org/2000/svg" width="1200" height="630" viewBox="0 0 1200 630">
  <defs>
    <linearGradient id="bg" x1="0" y1="0" x2="1" y2="1">
      <stop offset="0%" stop-color="#111827"/>
      <stop offset="100%" stop-color="#1e293b"/>
    </linearGradient>
    <linearGradient id="brand" x1="0" y1="0" x2="1" y2="1">
      <stop offset="0%" stop-color="#3b82f6"/>
      <stop offset="55%" stop-color="#8b5cf6"/>
      <stop offset="100%" stop-color="#c084fc"/>
    </linearGradient>
    <linearGradient id="accent" x1="0" y1="0" x2="1" y2="0">
      <stop offset="0%" stop-color="#3b82f6"/>
      <stop offset="100%" stop-color="#c084fc"/>
    </linearGradient>
  </defs>
  <rect width="1200" height="630" fill="url(#bg)"/>
  <rect x="0" y="0" width="1200" height="4" fill="url(#accent)"/>
  <rect x="0" y="626" width="1200" height="4" fill="url(#accent)"/>
  <!-- Lightning bolt icon (simplified favicon) -->
  <g transform="translate(520, 150) scale(2.5)">
    <path fill="#8b5cf6" d="M25.946 44.938c-.664.845-2.021.375-2.021-.698V33.937a2.26 2.26 0 0 0-2.262-2.262H10.287c-.92 0-1.456-1.04-.92-1.788l7.48-10.471c1.07-1.497 0-3.578-1.842-3.578H1.237c-.92 0-1.456-1.04-.92-1.788L10.013.474c.214-.297.556-.474.92-.474h28.894c.92 0 1.456 1.04.92 1.788l-7.48 10.471c-1.07 1.498 0 3.579 1.842 3.579h11.377c.943 0 1.473 1.088.89 1.83L25.947 44.94z"/>
  </g>
  <!-- Title -->
  <text x="600" y="400" text-anchor="middle" font-family="system-ui, -apple-system, sans-serif" font-weight="700" font-size="64" fill="#edf0f9" letter-spacing="-2">
    Item<tspan fill="url(#brand)">Fabricator</tspan>
  </text>
  <!-- Subtitle -->
  <text x="600" y="460" text-anchor="middle" font-family="system-ui, -apple-system, sans-serif" font-weight="400" font-size="28" fill="#a0aeca">
    Star Citizen Crafting &amp; Resource Planner
  </text>
  <!-- URL -->
  <text x="600" y="560" text-anchor="middle" font-family="monospace" font-weight="400" font-size="22" fill="#7d8ba8">
    itemfab.space
  </text>
</svg>
